<svg width="94" height="94" viewBox="0 0 94 94" fill="none" xmlns="http://www.w3.org/2000/svg">
<g filter="url(#filter0_d_59_1952)">
<rect x="15" y="5" width="64" height="64" rx="32" fill="url(#paint0_linear_59_1952)" shape-rendering="crispEdges"/>
<rect x="15.5" y="5.5" width="63" height="63" rx="31.5" stroke="url(#paint1_linear_59_1952)" shape-rendering="crispEdges"/>
<path d="M45.6846 38.6218C45.7416 37.5535 46.2676 36.6103 47.0536 35.9441C47.8835 35.2568 48.9292 34.8842 50.0066 34.8918C51.1376 34.8918 52.1786 35.2929 52.9546 35.9441C53.7416 36.6113 54.2616 37.5535 54.3236 38.6218C54.3806 39.7151 53.9436 40.7374 53.1676 41.4916C52.3168 42.3042 51.1829 42.7531 50.0066 42.7429C48.8269 42.7539 47.6892 42.3051 46.8346 41.4916C46.0636 40.7364 45.6216 39.7151 45.6836 38.6218H45.6846ZM38.8046 40.7784C38.8086 41.1955 38.9446 42.0077 39.1416 42.6429C39.5733 44.0077 40.2987 45.2614 41.2666 46.3159C42.3034 47.4572 43.5684 48.3678 44.9796 48.9886C46.5179 49.6637 48.1808 50.0082 49.8606 49.9998C51.5411 50.0037 53.2036 49.6544 54.7406 48.9746C56.1506 48.3467 57.4149 47.4328 58.4536 46.2909C59.4185 45.2308 60.1418 43.9739 60.5735 42.6069C60.989 41.2821 61.1028 39.8812 60.9065 38.5068C60.7203 37.1905 60.2586 35.9284 59.5516 34.8028C58.9003 33.7524 58.0638 32.8292 57.0826 32.078L47.0626 24.377C46.4066 23.8718 45.3026 23.8768 44.5836 24.377C43.8546 24.8881 43.7706 25.7323 44.4156 26.2685L48.5836 29.6604L35.8596 29.6764C34.8067 29.6764 33.8027 30.3636 33.5987 31.2398C33.3957 32.1251 34.1037 32.8603 35.1976 32.8643L41.6406 32.8553L30.0997 41.7106C29.0167 42.5388 28.6677 43.9242 29.3507 44.7955C30.0427 45.6867 31.5177 45.6867 32.6157 44.8005L38.8866 39.6681C38.8866 39.6681 38.7936 40.3613 38.8036 40.7774L38.8046 40.7784ZM54.9226 43.096C53.6266 44.4154 51.8186 45.1646 49.8616 45.1646C47.9026 45.1696 46.0896 44.4294 44.7986 43.117C44.1872 42.5027 43.7161 41.7632 43.4176 40.9494C43.1437 40.1851 43.0356 39.3712 43.1004 38.5618C43.1652 37.7524 43.4015 36.9661 43.7936 36.2552C44.1844 35.5533 44.7058 34.9327 45.3296 34.4267C46.5856 33.4064 48.1846 32.8543 49.8616 32.8492C51.5326 32.8492 53.1326 33.3964 54.3866 34.4167C55.0118 34.9197 55.5334 35.5393 55.9226 36.2412C56.3136 36.9383 56.5536 37.7146 56.6216 38.5178C56.6938 39.3352 56.5856 40.1585 56.3046 40.9294C56.0033 41.7418 55.5325 42.4808 54.9236 43.097L54.9226 43.096Z" fill="#F2F2F2"/>
<g opacity="0.8" filter="url(#filter1_f_59_1952)">
<path d="M45.6846 38.6218C45.7416 37.5535 46.2676 36.6103 47.0536 35.9441C47.8835 35.2568 48.9292 34.8842 50.0066 34.8918C51.1376 34.8918 52.1786 35.2929 52.9546 35.9441C53.7416 36.6113 54.2616 37.5535 54.3236 38.6218C54.3806 39.7151 53.9436 40.7374 53.1676 41.4916C52.3168 42.3042 51.1829 42.7531 50.0066 42.7429C48.8269 42.7539 47.6892 42.3051 46.8346 41.4916C46.0636 40.7364 45.6216 39.7151 45.6836 38.6218H45.6846ZM38.8046 40.7784C38.8086 41.1955 38.9446 42.0077 39.1416 42.6429C39.5733 44.0077 40.2987 45.2614 41.2666 46.3159C42.3034 47.4572 43.5684 48.3678 44.9796 48.9886C46.5179 49.6637 48.1808 50.0082 49.8606 49.9998C51.5411 50.0037 53.2036 49.6544 54.7406 48.9746C56.1506 48.3467 57.4149 47.4328 58.4536 46.2909C59.4185 45.2308 60.1418 43.9739 60.5735 42.6069C60.989 41.2821 61.1028 39.8812 60.9065 38.5068C60.7203 37.1905 60.2586 35.9284 59.5516 34.8028C58.9003 33.7524 58.0638 32.8292 57.0826 32.078L47.0626 24.377C46.4066 23.8718 45.3026 23.8768 44.5836 24.377C43.8546 24.8881 43.7706 25.7323 44.4156 26.2685L48.5836 29.6604L35.8596 29.6764C34.8067 29.6764 33.8027 30.3636 33.5987 31.2398C33.3957 32.1251 34.1037 32.8603 35.1976 32.8643L41.6406 32.8553L30.0997 41.7106C29.0167 42.5388 28.6677 43.9242 29.3507 44.7955C30.0427 45.6867 31.5177 45.6867 32.6157 44.8005L38.8866 39.6681C38.8866 39.6681 38.7936 40.3613 38.8036 40.7774L38.8046 40.7784ZM54.9226 43.096C53.6266 44.4154 51.8186 45.1646 49.8616 45.1646C47.9026 45.1696 46.0896 44.4294 44.7986 43.117C44.1872 42.5027 43.7161 41.7632 43.4176 40.9494C43.1437 40.1851 43.0356 39.3712 43.1004 38.5618C43.1652 37.7524 43.4015 36.9661 43.7936 36.2552C44.1844 35.5533 44.7058 34.9327 45.3296 34.4267C46.5856 33.4064 48.1846 32.8543 49.8616 32.8492C51.5326 32.8492 53.1326 33.3964 54.3866 34.4167C55.0118 34.9197 55.5334 35.5393 55.9226 36.2412C56.3136 36.9383 56.5536 37.7146 56.6216 38.5178C56.6938 39.3352 56.5856 40.1585 56.3046 40.9294C56.0033 41.7418 55.5325 42.4808 54.9236 43.097L54.9226 43.096Z" fill="#F2F2F2"/>
</g>
</g>
<defs>
<filter id="filter0_d_59_1952" x="0" y="0" width="94" height="94" filterUnits="userSpaceOnUse" color-interpolation-filters="sRGB">
<feFlood flood-opacity="0" result="BackgroundImageFix"/>
<feColorMatrix in="SourceAlpha" type="matrix" values="0 0 0 0 0 0 0 0 0 0 0 0 0 0 0 0 0 0 127 0" result="hardAlpha"/>
<feOffset dy="10"/>
<feGaussianBlur stdDeviation="7.5"/>
<feComposite in2="hardAlpha" operator="out"/>
<feColorMatrix type="matrix" values="0 0 0 0 0 0 0 0 0 0 0 0 0 0 0 0 0 0 0.08 0"/>
<feBlend mode="normal" in2="BackgroundImageFix" result="effect1_dropShadow_59_1952"/>
<feBlend mode="normal" in="SourceGraphic" in2="effect1_dropShadow_59_1952" result="shape"/>
</filter>
<filter id="filter1_f_59_1952" x="24" y="19" width="42" height="36" filterUnits="userSpaceOnUse" color-interpolation-filters="sRGB">
<feFlood flood-opacity="0" result="BackgroundImageFix"/>
<feBlend mode="normal" in="SourceGraphic" in2="BackgroundImageFix" result="shape"/>
<feGaussianBlur stdDeviation="2.5" result="effect1_foregroundBlur_59_1952"/>
</filter>
<linearGradient id="paint0_linear_59_1952" x1="47" y1="5" x2="47" y2="69" gradientUnits="userSpaceOnUse">
<stop stop-color="#5989A3"/>
<stop offset="1" stop-color="#5989A3" stop-opacity="0"/>
</linearGradient>
<linearGradient id="paint1_linear_59_1952" x1="47" y1="5" x2="47" y2="69" gradientUnits="userSpaceOnUse">
<stop stop-color="white"/>
<stop offset="1" stop-color="#A9CFE5" stop-opacity="0.5"/>
</linearGradient>
</defs>
</svg>
