<svg width="38" height="27" viewBox="0 0 38 27" fill="none" xmlns="http://www.w3.org/2000/svg">
<path d="M0 0V15H38V12H20.4615V9H38V6H20.4615V3H38V0H0ZM2.92308 1.5C3.3107 1.5 3.68245 1.65804 3.95654 1.93934C4.23063 2.22064 4.38462 2.60218 4.38462 3C4.38462 3.39782 4.23063 3.77936 3.95654 4.06066C3.68245 4.34196 3.3107 4.5 2.92308 4.5C2.53545 4.5 2.16371 4.34196 1.88961 4.06066C1.61552 3.77936 1.46154 3.39782 1.46154 3C1.46154 2.60218 1.61552 2.22064 1.88961 1.93934C2.16371 1.65804 2.53545 1.5 2.92308 1.5ZM8.76923 1.5C9.15685 1.5 9.5286 1.65804 9.80269 1.93934C10.0768 2.22064 10.2308 2.60218 10.2308 3C10.2308 3.39782 10.0768 3.77936 9.80269 4.06066C9.5286 4.34196 9.15685 4.5 8.76923 4.5C8.38161 4.5 8.00986 4.34196 7.73577 4.06066C7.46168 3.77936 7.30769 3.39782 7.30769 3C7.30769 2.60218 7.46168 2.22064 7.73577 1.93934C8.00986 1.65804 8.38161 1.5 8.76923 1.5ZM14.6154 1.5C15.003 1.5 15.3748 1.65804 15.6488 1.93934C15.9229 2.22064 16.0769 2.60218 16.0769 3C16.0769 3.39782 15.9229 3.77936 15.6488 4.06066C15.3748 4.34196 15.003 4.5 14.6154 4.5C14.2278 4.5 13.856 4.34196 13.5819 4.06066C13.3078 3.77936 13.1538 3.39782 13.1538 3C13.1538 2.60218 13.3078 2.22064 13.5819 1.93934C13.856 1.65804 14.2278 1.5 14.6154 1.5ZM5.84615 6C6.23378 6 6.60553 6.15804 6.87962 6.43934C7.15371 6.72064 7.30769 7.10218 7.30769 7.5C7.30769 7.89782 7.15371 8.27936 6.87962 8.56066C6.60553 8.84196 6.23378 9 5.84615 9C5.45853 9 5.08678 8.84196 4.81269 8.56066C4.5386 8.27936 4.38462 7.89782 4.38462 7.5C4.38462 7.10218 4.5386 6.72064 4.81269 6.43934C5.08678 6.15804 5.45853 6 5.84615 6ZM11.6923 6C12.0799 6 12.4517 6.15804 12.7258 6.43934C12.9999 6.72064 13.1538 7.10218 13.1538 7.5C13.1538 7.89782 12.9999 8.27936 12.7258 8.56066C12.4517 8.84196 12.0799 9 11.6923 9C11.3047 9 10.9329 8.84196 10.6588 8.56066C10.3848 8.27936 10.2308 7.89782 10.2308 7.5C10.2308 7.10218 10.3848 6.72064 10.6588 6.43934C10.9329 6.15804 11.3047 6 11.6923 6ZM17.5385 6C17.9261 6 18.2978 6.15804 18.5719 6.43934C18.846 6.72064 19 7.10218 19 7.5C19 7.89782 18.846 8.27936 18.5719 8.56066C18.2978 8.84196 17.9261 9 17.5385 9C17.1508 9 16.7791 8.84196 16.505 8.56066C16.2309 8.27936 16.0769 7.89782 16.0769 7.5C16.0769 7.10218 16.2309 6.72064 16.505 6.43934C16.7791 6.15804 17.1508 6 17.5385 6ZM2.92308 10.5C3.3107 10.5 3.68245 10.658 3.95654 10.9393C4.23063 11.2206 4.38462 11.6022 4.38462 12C4.38462 12.3978 4.23063 12.7794 3.95654 13.0607C3.68245 13.342 3.3107 13.5 2.92308 13.5C2.53545 13.5 2.16371 13.342 1.88961 13.0607C1.61552 12.7794 1.46154 12.3978 1.46154 12C1.46154 11.6022 1.61552 11.2206 1.88961 10.9393C2.16371 10.658 2.53545 10.5 2.92308 10.5ZM8.76923 10.5C9.15685 10.5 9.5286 10.658 9.80269 10.9393C10.0768 11.2206 10.2308 11.6022 10.2308 12C10.2308 12.3978 10.0768 12.7794 9.80269 13.0607C9.5286 13.342 9.15685 13.5 8.76923 13.5C8.38161 13.5 8.00986 13.342 7.73577 13.0607C7.46168 12.7794 7.30769 12.3978 7.30769 12C7.30769 11.6022 7.46168 11.2206 7.73577 10.9393C8.00986 10.658 8.38161 10.5 8.76923 10.5ZM14.6154 10.5C15.003 10.5 15.3748 10.658 15.6488 10.9393C15.9229 11.2206 16.0769 11.6022 16.0769 12C16.0769 12.3978 15.9229 12.7794 15.6488 13.0607C15.3748 13.342 15.003 13.5 14.6154 13.5C14.2278 13.5 13.856 13.342 13.5819 13.0607C13.3078 12.7794 13.1538 12.3978 13.1538 12C13.1538 11.6022 13.3078 11.2206 13.5819 10.9393C13.856 10.658 14.2278 10.5 14.6154 10.5ZM0 18V21H38V18H0ZM0 24V27H38V24H0Z" fill="#F2F2F2"/>
</svg>
