<svg width="38" height="25" viewBox="0 0 38 25" fill="none" xmlns="http://www.w3.org/2000/svg">
<path d="M19 0L0 12.5L19 25L38 12.5L19 0ZM19 4.38312C21.1352 4.38312 23.183 5.23829 24.6928 6.7605C26.2026 8.28271 27.0508 10.3473 27.0508 12.5C27.0508 12.7715 27.0373 13.0427 27.0103 13.3128C23.136 10.3767 18.1136 8.64221 13.4113 8.73417C12.8773 8.74472 12.348 8.78011 11.8245 8.83856C12.4955 7.50006 13.5213 6.37516 14.7879 5.58869C16.0545 4.80222 17.5124 4.38493 19 4.38312ZM13.7212 10.2054C18.1967 10.2162 23.0926 11.9959 26.6867 14.9114C26.1765 16.5646 25.1554 18.01 23.7725 19.0365C22.3895 20.063 20.7173 20.6167 19 20.6169C16.8648 20.6169 14.817 19.7617 13.3072 18.2395C11.7974 16.7173 10.9492 14.6527 10.9492 12.5C10.9523 11.7885 11.0483 11.0805 11.2346 10.3942C12.0406 10.2649 12.8732 10.2033 13.7212 10.2054Z" fill="#F2F2F2"/>
</svg>
