<svg width="94" height="94" viewBox="0 0 94 94" fill="none" xmlns="http://www.w3.org/2000/svg">
<g filter="url(#filter0_d_59_1940)">
<rect x="15" y="5" width="64" height="64" rx="32" fill="url(#paint0_linear_59_1940)" shape-rendering="crispEdges"/>
<rect x="15.5" y="5.5" width="63" height="63" rx="31.5" stroke="url(#paint1_linear_59_1940)" shape-rendering="crispEdges"/>
<path d="M44.52 34.568C44.5442 35.0538 44.3974 35.5327 44.1051 35.9215C43.8128 36.3103 43.3934 36.5843 42.92 36.696C42.0848 36.9426 41.2137 37.0454 40.344 37C40.12 37 40.104 36.856 40.104 36.696V32.616C40.104 32.504 40.216 32.312 40.28 32.312C41.1953 32.2095 42.1214 32.2691 43.016 32.488C43.4662 32.6114 43.8608 32.8848 44.1343 33.2631C44.4078 33.6414 44.5439 34.1018 44.52 34.568Z" fill="#F2F2F2"/>
<path d="M55 21H39C36.8783 21 34.8434 21.8429 33.3431 23.3431C31.8429 24.8434 31 26.8783 31 29V45C31 47.1217 31.8429 49.1566 33.3431 50.6569C34.8434 52.1571 36.8783 53 39 53H55C57.1217 53 59.1566 52.1571 60.6569 50.6569C62.1571 49.1566 63 47.1217 63 45V29C63 26.8783 62.1571 24.8434 60.6569 23.3431C59.1566 21.8429 57.1217 21 55 21ZM45.4 38.6C44.5925 39.1129 43.6671 39.4103 42.712 39.464H40.568C40.12 39.464 40.12 39.464 40.12 39.896V43.608C40.12 43.928 40.024 44.024 39.704 44.024H37.592C37.288 44.024 37.208 43.912 37.208 43.624V30.136C37.208 29.816 37.208 29.72 37.608 29.72H42.616C43.5301 29.7448 44.4226 30.0037 45.208 30.472C45.8863 30.8542 46.4511 31.4096 46.8446 32.0814C47.2381 32.7532 47.4463 33.5174 47.448 34.296C47.5406 35.1329 47.3979 35.979 47.0362 36.7393C46.6744 37.4996 46.1078 38.1439 45.4 38.6ZM54.872 43.88C53.4806 44.4221 51.9571 44.5281 50.504 44.184C50.0677 44.088 49.6411 43.96 49.224 43.8C49.1597 43.7698 49.1031 43.7253 49.0588 43.6698C49.0144 43.6143 48.9833 43.5494 48.968 43.48V41.064C49.48 41.256 49.96 41.48 50.456 41.64C51.2873 41.9057 52.1674 41.9822 53.032 41.864C53.2048 41.832 53.3701 41.7787 53.528 41.704C53.6218 41.6629 53.7033 41.5983 53.7646 41.5163C53.8259 41.4343 53.8649 41.3378 53.8778 41.2363C53.8907 41.1347 53.877 41.0316 53.8382 40.9369C53.7993 40.8422 53.7365 40.7592 53.656 40.696C53.29 40.4426 52.8985 40.2281 52.488 40.056C51.832 39.736 51.16 39.48 50.536 39.112C49.9726 38.8379 49.5126 38.3894 49.2244 37.8331C48.9361 37.2768 48.835 36.6424 48.936 36.024C49.0174 35.4289 49.2646 34.8687 49.6494 34.4075C50.0342 33.9463 50.5411 33.6027 51.112 33.416C52.141 33.068 53.239 32.9747 54.312 33.144C54.824 33.144 55.32 33.336 55.832 33.432C56.104 33.432 56.2 33.656 56.184 33.928V35.8C56.184 36.152 56.104 36.184 55.784 36.056C54.7847 35.5933 53.6801 35.4056 52.584 35.512C52.4287 35.5301 52.2774 35.5733 52.136 35.64C52.04 35.6777 51.9555 35.7398 51.8909 35.8202C51.8263 35.9005 51.7839 35.9964 51.7677 36.0982C51.7515 36.2001 51.7622 36.3044 51.7988 36.4008C51.8353 36.4972 51.8964 36.5824 51.976 36.648C52.4389 36.9563 52.9243 37.2229 53.432 37.448C54.04 37.752 54.68 37.992 55.272 38.328C55.8092 38.5724 56.2542 38.9822 56.542 39.4974C56.8299 40.0127 56.9455 40.6064 56.872 41.192C56.8214 41.7762 56.6047 42.3337 56.2475 42.7986C55.8903 43.2636 55.4074 43.6166 54.856 43.816L54.872 43.88Z" fill="#F2F2F2"/>
<g opacity="0.8" filter="url(#filter1_f_59_1940)">
<path d="M44.52 34.568C44.5442 35.0538 44.3974 35.5327 44.1051 35.9215C43.8128 36.3103 43.3934 36.5843 42.92 36.696C42.0848 36.9426 41.2137 37.0454 40.344 37C40.12 37 40.104 36.856 40.104 36.696V32.616C40.104 32.504 40.216 32.312 40.28 32.312C41.1953 32.2095 42.1214 32.2691 43.016 32.488C43.4662 32.6114 43.8608 32.8848 44.1343 33.2631C44.4078 33.6414 44.5439 34.1018 44.52 34.568Z" fill="#F2F2F2"/>
<path d="M55 21H39C36.8783 21 34.8434 21.8429 33.3431 23.3431C31.8429 24.8434 31 26.8783 31 29V45C31 47.1217 31.8429 49.1566 33.3431 50.6569C34.8434 52.1571 36.8783 53 39 53H55C57.1217 53 59.1566 52.1571 60.6569 50.6569C62.1571 49.1566 63 47.1217 63 45V29C63 26.8783 62.1571 24.8434 60.6569 23.3431C59.1566 21.8429 57.1217 21 55 21ZM45.4 38.6C44.5925 39.1129 43.6671 39.4103 42.712 39.464H40.568C40.12 39.464 40.12 39.464 40.12 39.896V43.608C40.12 43.928 40.024 44.024 39.704 44.024H37.592C37.288 44.024 37.208 43.912 37.208 43.624V30.136C37.208 29.816 37.208 29.72 37.608 29.72H42.616C43.5301 29.7448 44.4226 30.0037 45.208 30.472C45.8863 30.8542 46.4511 31.4096 46.8446 32.0814C47.2381 32.7532 47.4463 33.5174 47.448 34.296C47.5406 35.1329 47.3979 35.979 47.0362 36.7393C46.6744 37.4996 46.1078 38.1439 45.4 38.6ZM54.872 43.88C53.4806 44.4221 51.9571 44.5281 50.504 44.184C50.0677 44.088 49.6411 43.96 49.224 43.8C49.1597 43.7698 49.1031 43.7253 49.0588 43.6698C49.0144 43.6143 48.9833 43.5494 48.968 43.48V41.064C49.48 41.256 49.96 41.48 50.456 41.64C51.2873 41.9057 52.1674 41.9822 53.032 41.864C53.2048 41.832 53.3701 41.7787 53.528 41.704C53.6218 41.6629 53.7033 41.5983 53.7646 41.5163C53.8259 41.4343 53.8649 41.3378 53.8778 41.2363C53.8907 41.1347 53.877 41.0316 53.8382 40.9369C53.7993 40.8422 53.7365 40.7592 53.656 40.696C53.29 40.4426 52.8985 40.2281 52.488 40.056C51.832 39.736 51.16 39.48 50.536 39.112C49.9726 38.8379 49.5126 38.3894 49.2244 37.8331C48.9361 37.2768 48.835 36.6424 48.936 36.024C49.0174 35.4289 49.2646 34.8687 49.6494 34.4075C50.0342 33.9463 50.5411 33.6027 51.112 33.416C52.141 33.068 53.239 32.9747 54.312 33.144C54.824 33.144 55.32 33.336 55.832 33.432C56.104 33.432 56.2 33.656 56.184 33.928V35.8C56.184 36.152 56.104 36.184 55.784 36.056C54.7847 35.5933 53.6801 35.4056 52.584 35.512C52.4287 35.5301 52.2774 35.5733 52.136 35.64C52.04 35.6777 51.9555 35.7398 51.8909 35.8202C51.8263 35.9005 51.7839 35.9964 51.7677 36.0982C51.7515 36.2001 51.7622 36.3044 51.7988 36.4008C51.8353 36.4972 51.8964 36.5824 51.976 36.648C52.4389 36.9563 52.9243 37.2229 53.432 37.448C54.04 37.752 54.68 37.992 55.272 38.328C55.8092 38.5724 56.2542 38.9822 56.542 39.4974C56.8299 40.0127 56.9455 40.6064 56.872 41.192C56.8214 41.7762 56.6047 42.3337 56.2475 42.7986C55.8903 43.2636 55.4074 43.6166 54.856 43.816L54.872 43.88Z" fill="#F2F2F2"/>
</g>
</g>
<defs>
<filter id="filter0_d_59_1940" x="0" y="0" width="94" height="94" filterUnits="userSpaceOnUse" color-interpolation-filters="sRGB">
<feFlood flood-opacity="0" result="BackgroundImageFix"/>
<feColorMatrix in="SourceAlpha" type="matrix" values="0 0 0 0 0 0 0 0 0 0 0 0 0 0 0 0 0 0 127 0" result="hardAlpha"/>
<feOffset dy="10"/>
<feGaussianBlur stdDeviation="7.5"/>
<feComposite in2="hardAlpha" operator="out"/>
<feColorMatrix type="matrix" values="0 0 0 0 0 0 0 0 0 0 0 0 0 0 0 0 0 0 0.08 0"/>
<feBlend mode="normal" in2="BackgroundImageFix" result="effect1_dropShadow_59_1940"/>
<feBlend mode="normal" in="SourceGraphic" in2="effect1_dropShadow_59_1940" result="shape"/>
</filter>
<filter id="filter1_f_59_1940" x="26" y="16" width="42" height="42" filterUnits="userSpaceOnUse" color-interpolation-filters="sRGB">
<feFlood flood-opacity="0" result="BackgroundImageFix"/>
<feBlend mode="normal" in="SourceGraphic" in2="BackgroundImageFix" result="shape"/>
<feGaussianBlur stdDeviation="2.5" result="effect1_foregroundBlur_59_1940"/>
</filter>
<linearGradient id="paint0_linear_59_1940" x1="47" y1="5" x2="47" y2="69" gradientUnits="userSpaceOnUse">
<stop stop-color="#5989A3"/>
<stop offset="1" stop-color="#5989A3" stop-opacity="0"/>
</linearGradient>
<linearGradient id="paint1_linear_59_1940" x1="47" y1="5" x2="47" y2="69" gradientUnits="userSpaceOnUse">
<stop stop-color="white"/>
<stop offset="1" stop-color="#A9CFE5" stop-opacity="0.5"/>
</linearGradient>
</defs>
</svg>
