<svg width="94" height="94" viewBox="0 0 94 94" fill="none" xmlns="http://www.w3.org/2000/svg">
<g filter="url(#filter0_d_59_1949)">
<rect x="15" y="5" width="64" height="64" rx="32" fill="url(#paint0_linear_59_1949)" shape-rendering="crispEdges"/>
<rect x="15.5" y="5.5" width="63" height="63" rx="31.5" stroke="url(#paint1_linear_59_1949)" shape-rendering="crispEdges"/>
<path d="M47 21C38.164 21 31 28.164 31 37C31 45.836 38.164 53 47 53C55.836 53 63 45.836 63 37C63 28.164 55.836 21 47 21ZM47 23.4613C54.46 23.4707 60.504 29.5213 60.504 36.9827C60.504 44.4507 54.4507 50.504 46.9827 50.504C39.5147 50.504 33.4613 44.4507 33.4613 36.9827C33.4613 33.2493 34.9747 29.8693 37.4213 27.4227C38.6768 26.1651 40.1684 25.1679 41.8103 24.4883C43.4523 23.8087 45.2123 23.4602 46.9893 23.4627L47 23.4613ZM47 27.1547C41.144 28.1867 35.9227 33.5867 35.9227 39.4613C38.788 34.4027 40.7013 34.0387 41.2307 34.0387C41.76 34.0387 42.0387 34.3133 42.0387 34.9227V42.4613C42.0387 43.3987 40.2173 43.2453 39.6147 43.1533C41.8413 46.4667 47 46.8467 47 46.8467L49.4613 44.3853L51.9227 45.616C55.808 43.8373 58.076 40.0293 58.076 39.4627C57.1388 40.6293 55.8687 41.4831 54.4347 41.9107L54.3827 41.924C54.056 41.924 53.152 41.756 53.152 41.308V32.384C53.152 31.6093 54.9413 29.2453 55.6133 28.384C51.1707 29.548 49.8827 31.576 49.8827 31.576C49.8827 31.576 49.5453 30.8453 48.2293 30.8453C48.8973 31.476 49.3467 32.3307 49.4587 33.288L49.46 33.3067V40.8453C48.7336 41.3591 47.9116 41.7222 47.0427 41.9133L46.9973 41.9213C46.144 41.9213 45.728 41.5747 45.728 40.9213C45.728 40.268 45.7667 32.076 45.7667 32.076C45.7667 32.076 44.536 32.528 44.536 29.9987C44.536 28.7333 46.9973 27.152 46.9973 27.152L47 27.1547Z" fill="#F2F2F2"/>
<g opacity="0.8" filter="url(#filter1_f_59_1949)">
<path d="M47 21C38.164 21 31 28.164 31 37C31 45.836 38.164 53 47 53C55.836 53 63 45.836 63 37C63 28.164 55.836 21 47 21ZM47 23.4613C54.46 23.4707 60.504 29.5213 60.504 36.9827C60.504 44.4507 54.4507 50.504 46.9827 50.504C39.5147 50.504 33.4613 44.4507 33.4613 36.9827C33.4613 33.2493 34.9747 29.8693 37.4213 27.4227C38.6768 26.1651 40.1684 25.1679 41.8103 24.4883C43.4523 23.8087 45.2123 23.4602 46.9893 23.4627L47 23.4613ZM47 27.1547C41.144 28.1867 35.9227 33.5867 35.9227 39.4613C38.788 34.4027 40.7013 34.0387 41.2307 34.0387C41.76 34.0387 42.0387 34.3133 42.0387 34.9227V42.4613C42.0387 43.3987 40.2173 43.2453 39.6147 43.1533C41.8413 46.4667 47 46.8467 47 46.8467L49.4613 44.3853L51.9227 45.616C55.808 43.8373 58.076 40.0293 58.076 39.4627C57.1388 40.6293 55.8687 41.4831 54.4347 41.9107L54.3827 41.924C54.056 41.924 53.152 41.756 53.152 41.308V32.384C53.152 31.6093 54.9413 29.2453 55.6133 28.384C51.1707 29.548 49.8827 31.576 49.8827 31.576C49.8827 31.576 49.5453 30.8453 48.2293 30.8453C48.8973 31.476 49.3467 32.3307 49.4587 33.288L49.46 33.3067V40.8453C48.7336 41.3591 47.9116 41.7222 47.0427 41.9133L46.9973 41.9213C46.144 41.9213 45.728 41.5747 45.728 40.9213C45.728 40.268 45.7667 32.076 45.7667 32.076C45.7667 32.076 44.536 32.528 44.536 29.9987C44.536 28.7333 46.9973 27.152 46.9973 27.152L47 27.1547Z" fill="#F2F2F2"/>
</g>
</g>
<defs>
<filter id="filter0_d_59_1949" x="0" y="0" width="94" height="94" filterUnits="userSpaceOnUse" color-interpolation-filters="sRGB">
<feFlood flood-opacity="0" result="BackgroundImageFix"/>
<feColorMatrix in="SourceAlpha" type="matrix" values="0 0 0 0 0 0 0 0 0 0 0 0 0 0 0 0 0 0 127 0" result="hardAlpha"/>
<feOffset dy="10"/>
<feGaussianBlur stdDeviation="7.5"/>
<feComposite in2="hardAlpha" operator="out"/>
<feColorMatrix type="matrix" values="0 0 0 0 0 0 0 0 0 0 0 0 0 0 0 0 0 0 0.08 0"/>
<feBlend mode="normal" in2="BackgroundImageFix" result="effect1_dropShadow_59_1949"/>
<feBlend mode="normal" in="SourceGraphic" in2="effect1_dropShadow_59_1949" result="shape"/>
</filter>
<filter id="filter1_f_59_1949" x="26" y="16" width="42" height="42" filterUnits="userSpaceOnUse" color-interpolation-filters="sRGB">
<feFlood flood-opacity="0" result="BackgroundImageFix"/>
<feBlend mode="normal" in="SourceGraphic" in2="BackgroundImageFix" result="shape"/>
<feGaussianBlur stdDeviation="2.5" result="effect1_foregroundBlur_59_1949"/>
</filter>
<linearGradient id="paint0_linear_59_1949" x1="47" y1="5" x2="47" y2="69" gradientUnits="userSpaceOnUse">
<stop stop-color="#5989A3"/>
<stop offset="1" stop-color="#5989A3" stop-opacity="0"/>
</linearGradient>
<linearGradient id="paint1_linear_59_1949" x1="47" y1="5" x2="47" y2="69" gradientUnits="userSpaceOnUse">
<stop stop-color="white"/>
<stop offset="1" stop-color="#A9CFE5" stop-opacity="0.5"/>
</linearGradient>
</defs>
</svg>
