<svg width="1440" height="742" viewBox="0 0 1440 742" fill="none" xmlns="http://www.w3.org/2000/svg">
<g opacity="0.5">
<path d="M-40 817.257H1480L1480.5 76.7573L1408 94.2573L1366.5 97.7573L1323 98.2573L1270 91.2573L1217.5 73.7573L1157 47.7573L1123 43.2573L1082.5 49.2573L1043.5 70.2573L1010 105.257L972 155.757L928 205.257L866 257.257L829.5 278.757L796.5 297.257L746 323.257L682 344.757L612.5 351.757L557.5 346.257L525 335.257L493.5 322.257L449.5 294.257L392.5 245.257L344 193.257L286 139.757L258 127.757H231.5L212 139.757L194 164.757L178 226.257L158 282.257L130.5 338.757L104 382.257L72.5 425.757L37.5 463.757L-2.5 500.257L-40.5 526.257L-40 817.257Z" fill="url(#paint0_linear_59_1833)"/>
<path d="M-39.5317 528.257C16.5048 489.016 65.0014 439.986 103.627 383.524C194.5 249.412 172.927 150.385 229.514 130.199C316.956 99.0154 392.836 326.89 583.534 348.909C723.403 365.077 856.41 262.525 887.195 238.767C1007.3 146.179 1016.91 53.2619 1107.48 43.7211C1173.72 36.6712 1197.11 83.3413 1302.52 95.6315C1375.91 104.185 1438.47 90.2031 1480.32 76.8319" stroke="#F2F2F2" stroke-width="5" stroke-miterlimit="10"/>
<g filter="url(#filter0_f_59_1833)">
<path d="M-39.5317 528.257C16.5048 489.016 65.0014 439.986 103.627 383.524C194.5 249.412 172.927 150.385 229.514 130.199C316.956 99.0154 392.836 326.89 583.534 348.909C723.403 365.077 856.41 262.525 887.195 238.767C1007.3 146.179 1016.91 53.2619 1107.48 43.7211C1173.72 36.6712 1197.11 83.3413 1302.52 95.6315C1375.91 104.185 1438.47 90.2031 1480.32 76.8319" stroke="#F2F2F2" stroke-width="5" stroke-miterlimit="10"/>
</g>
</g>
<g opacity="0.5">
<path d="M1480 787.257H-40L-40.5 46.7573L32 64.2573L73.5 67.7573L117 68.2573L170 61.2573L222.5 43.7573L283 17.7573L317 13.2573L357.5 19.2573L396.5 40.2573L430 75.2573L468 125.757L512 175.257L574 227.257L610.5 248.757L643.5 267.257L694 293.257L758 314.757L827.5 321.757L882.5 316.257L915 305.257L946.5 292.257L990.5 264.257L1047.5 215.257L1096 163.257L1154 109.757L1182 97.7573H1208.5L1228 109.757L1246 134.757L1262 196.257L1282 252.257L1309.5 308.757L1336 352.257L1367.5 395.757L1402.5 433.757L1442.5 470.257L1480.5 496.257L1480 787.257Z" fill="url(#paint1_linear_59_1833)"/>
<path d="M1479.53 498.257C1423.5 459.016 1375 409.986 1336.37 353.524C1245.5 219.412 1267.07 120.385 1210.49 100.199C1123.04 69.0154 1047.16 296.89 856.466 318.909C716.597 335.077 583.59 232.525 552.805 208.767C432.699 116.179 423.088 23.2619 332.521 13.7211C266.276 6.67121 242.894 53.3413 137.475 65.6315C64.0862 74.1853 1.53046 60.2031 -40.3221 46.8319" stroke="#F2F2F2" stroke-width="5" stroke-miterlimit="10"/>
<g filter="url(#filter1_f_59_1833)">
<path d="M1479.53 498.257C1423.5 459.016 1375 409.986 1336.37 353.524C1245.5 219.412 1267.07 120.385 1210.49 100.199C1123.04 69.0154 1047.16 296.89 856.466 318.909C716.597 335.077 583.59 232.525 552.805 208.767C432.699 116.179 423.088 23.2619 332.521 13.7211C266.276 6.67121 242.894 53.3413 137.475 65.6315C64.0862 74.1853 1.53046 60.2031 -40.3221 46.8319" stroke="#F2F2F2" stroke-width="5" stroke-miterlimit="10"/>
</g>
</g>
<defs>
<filter id="filter0_f_59_1833" x="-50.9658" y="30.5007" width="1542.05" height="509.804" filterUnits="userSpaceOnUse" color-interpolation-filters="sRGB">
<feFlood flood-opacity="0" result="BackgroundImageFix"/>
<feBlend mode="normal" in="SourceGraphic" in2="BackgroundImageFix" result="shape"/>
<feGaussianBlur stdDeviation="5" result="effect1_foregroundBlur_59_1833"/>
</filter>
<filter id="filter1_f_59_1833" x="-51.083" y="0.500732" width="1542.05" height="509.804" filterUnits="userSpaceOnUse" color-interpolation-filters="sRGB">
<feFlood flood-opacity="0" result="BackgroundImageFix"/>
<feBlend mode="normal" in="SourceGraphic" in2="BackgroundImageFix" result="shape"/>
<feGaussianBlur stdDeviation="5" result="effect1_foregroundBlur_59_1833"/>
</filter>
<linearGradient id="paint0_linear_59_1833" x1="720" y1="549.757" x2="720" y2="43.2573" gradientUnits="userSpaceOnUse">
<stop stop-color="#F2F2F2" stop-opacity="0"/>
<stop offset="0.675" stop-color="#F2F2F2" stop-opacity="0.5"/>
<stop offset="1" stop-color="#F2F2F2"/>
</linearGradient>
<linearGradient id="paint1_linear_59_1833" x1="720" y1="519.757" x2="720" y2="13.2573" gradientUnits="userSpaceOnUse">
<stop stop-color="#F2F2F2" stop-opacity="0"/>
<stop offset="0.675" stop-color="#F2F2F2" stop-opacity="0.5"/>
<stop offset="1" stop-color="#F2F2F2"/>
</linearGradient>
</defs>
</svg>
